<mxfile host="Electron" modified="2024-03-21T14:02:09.481Z" agent="Mozilla/5.0 (Macintosh; Intel Mac OS X 10_15_7) AppleWebKit/537.36 (KHTML, like Gecko) draw.io/24.0.4 Chrome/120.0.6099.109 Electron/28.1.0 Safari/537.36" etag="raAtIkPg7I5ZaBKRvUYT" version="24.0.4" type="device">
  <diagram name="Page-1" id="xyIbonj2nlDiK9SAnFn1">
    <mxGraphModel dx="2074" dy="1214" grid="1" gridSize="10" guides="1" tooltips="1" connect="1" arrows="1" fold="1" page="1" pageScale="1" pageWidth="850" pageHeight="1100" math="0" shadow="0">
      <root>
        <mxCell id="0" />
        <mxCell id="1" parent="0" />
        <mxCell id="rsmnj9M_uvdk-dTHFDBe-8" value="Twilio" style="swimlane;whiteSpace=wrap;html=1;" vertex="1" parent="1">
          <mxGeometry x="40" y="30" width="480" height="690" as="geometry" />
        </mxCell>
        <mxCell id="rsmnj9M_uvdk-dTHFDBe-10" style="edgeStyle=orthogonalEdgeStyle;rounded=0;orthogonalLoop=1;jettySize=auto;html=1;entryX=0.5;entryY=0;entryDx=0;entryDy=0;" edge="1" parent="rsmnj9M_uvdk-dTHFDBe-8" source="rsmnj9M_uvdk-dTHFDBe-1" target="rsmnj9M_uvdk-dTHFDBe-2">
          <mxGeometry relative="1" as="geometry" />
        </mxCell>
        <mxCell id="rsmnj9M_uvdk-dTHFDBe-11" style="edgeStyle=orthogonalEdgeStyle;rounded=0;orthogonalLoop=1;jettySize=auto;html=1;exitX=0.5;exitY=1;exitDx=0;exitDy=0;entryX=0.5;entryY=0;entryDx=0;entryDy=0;" edge="1" parent="rsmnj9M_uvdk-dTHFDBe-8" source="rsmnj9M_uvdk-dTHFDBe-2" target="rsmnj9M_uvdk-dTHFDBe-3">
          <mxGeometry relative="1" as="geometry" />
        </mxCell>
        <mxCell id="rsmnj9M_uvdk-dTHFDBe-2" value="מלל" style="rounded=1;whiteSpace=wrap;html=1;" vertex="1" parent="rsmnj9M_uvdk-dTHFDBe-8">
          <mxGeometry x="190" y="220" width="120" height="60" as="geometry" />
        </mxCell>
        <mxCell id="rsmnj9M_uvdk-dTHFDBe-12" style="edgeStyle=orthogonalEdgeStyle;rounded=0;orthogonalLoop=1;jettySize=auto;html=1;exitX=0.5;exitY=1;exitDx=0;exitDy=0;entryX=0.5;entryY=0;entryDx=0;entryDy=0;" edge="1" parent="rsmnj9M_uvdk-dTHFDBe-8" source="rsmnj9M_uvdk-dTHFDBe-3" target="rsmnj9M_uvdk-dTHFDBe-4">
          <mxGeometry relative="1" as="geometry" />
        </mxCell>
        <mxCell id="rsmnj9M_uvdk-dTHFDBe-3" value="צומת החלטה" style="rhombus;whiteSpace=wrap;html=1;" vertex="1" parent="rsmnj9M_uvdk-dTHFDBe-8">
          <mxGeometry x="210" y="290" width="80" height="80" as="geometry" />
        </mxCell>
        <mxCell id="rsmnj9M_uvdk-dTHFDBe-4" value="העברה לסאב פלואו" style="shape=process;whiteSpace=wrap;html=1;backgroundOutline=1;" vertex="1" parent="rsmnj9M_uvdk-dTHFDBe-8">
          <mxGeometry x="190" y="400" width="120" height="60" as="geometry" />
        </mxCell>
        <mxCell id="rsmnj9M_uvdk-dTHFDBe-1" value="סיום שיחה" style="ellipse;whiteSpace=wrap;html=1;aspect=fixed;" vertex="1" parent="rsmnj9M_uvdk-dTHFDBe-8">
          <mxGeometry x="210" y="100" width="80" height="80" as="geometry" />
        </mxCell>
        <mxCell id="rsmnj9M_uvdk-dTHFDBe-9" value="CRM" style="swimlane;whiteSpace=wrap;html=1;" vertex="1" parent="1">
          <mxGeometry x="520" y="30" width="210" height="690" as="geometry" />
        </mxCell>
      </root>
    </mxGraphModel>
  </diagram>
</mxfile>
